<mxfile host="app.diagrams.net" modified="2020-11-03T19:17:14.252Z" agent="5.0 (Windows NT 10.0; Win64; x64) AppleWebKit/537.36 (KHTML, like Gecko) Chrome/85.0.4183.121 Safari/537.36 OPR/71.0.3770.310" etag="IiZUQeVwjeCx0s7gJHiD" version="13.8.9" type="github">
  <diagram id="41guQlqh2v2WvfY6evQr" name="Page-1">
    <mxGraphModel dx="827" dy="483" grid="1" gridSize="10" guides="1" tooltips="1" connect="1" arrows="1" fold="1" page="1" pageScale="1" pageWidth="850" pageHeight="1100" math="0" shadow="0">
      <root>
        <mxCell id="0" />
        <mxCell id="1" parent="0" />
        <mxCell id="YylkgkOglykvxc9Hslgz-1" value="EVA-00" style="shape=hexagon;perimeter=hexagonPerimeter2;whiteSpace=wrap;html=1;fixedSize=1;size=30;" parent="1" vertex="1">
          <mxGeometry x="450" y="30" width="120" height="100" as="geometry" />
        </mxCell>
        <mxCell id="T7dbJaCAYgnF1lV1QpFW-21" style="edgeStyle=orthogonalEdgeStyle;rounded=0;orthogonalLoop=1;jettySize=auto;html=1;exitX=1;exitY=0.5;exitDx=0;exitDy=0;entryX=0;entryY=0.5;entryDx=0;entryDy=0;" parent="1" source="YylkgkOglykvxc9Hslgz-2" target="YylkgkOglykvxc9Hslgz-15" edge="1">
          <mxGeometry relative="1" as="geometry" />
        </mxCell>
        <mxCell id="YylkgkOglykvxc9Hslgz-2" value="Propulsão" style="rounded=0;whiteSpace=wrap;html=1;" parent="1" vertex="1">
          <mxGeometry x="30" y="387" width="120" height="60" as="geometry" />
        </mxCell>
        <mxCell id="YylkgkOglykvxc9Hslgz-20" style="edgeStyle=orthogonalEdgeStyle;rounded=0;orthogonalLoop=1;jettySize=auto;html=1;exitX=1;exitY=0.5;exitDx=0;exitDy=0;entryX=0;entryY=0.5;entryDx=0;entryDy=0;" parent="1" source="YylkgkOglykvxc9Hslgz-3" target="YylkgkOglykvxc9Hslgz-19" edge="1">
          <mxGeometry relative="1" as="geometry" />
        </mxCell>
        <mxCell id="YylkgkOglykvxc9Hslgz-3" value="Estrutura" style="rounded=0;whiteSpace=wrap;html=1;" parent="1" vertex="1">
          <mxGeometry x="30" y="200" width="120" height="60" as="geometry" />
        </mxCell>
        <mxCell id="T7dbJaCAYgnF1lV1QpFW-19" style="edgeStyle=orthogonalEdgeStyle;rounded=0;orthogonalLoop=1;jettySize=auto;html=1;exitX=1;exitY=0.5;exitDx=0;exitDy=0;entryX=0;entryY=0.5;entryDx=0;entryDy=0;" parent="1" source="YylkgkOglykvxc9Hslgz-4" target="YylkgkOglykvxc9Hslgz-7" edge="1">
          <mxGeometry relative="1" as="geometry" />
        </mxCell>
        <mxCell id="YylkgkOglykvxc9Hslgz-4" value="Aviônica" style="rounded=0;whiteSpace=wrap;html=1;" parent="1" vertex="1">
          <mxGeometry x="30" y="573" width="120" height="60" as="geometry" />
        </mxCell>
        <mxCell id="YylkgkOglykvxc9Hslgz-9" style="edgeStyle=orthogonalEdgeStyle;rounded=0;orthogonalLoop=1;jettySize=auto;html=1;exitX=1;exitY=0.5;exitDx=0;exitDy=0;entryX=0;entryY=0.5;entryDx=0;entryDy=0;" parent="1" source="YylkgkOglykvxc9Hslgz-5" target="YylkgkOglykvxc9Hslgz-6" edge="1">
          <mxGeometry relative="1" as="geometry" />
        </mxCell>
        <mxCell id="YylkgkOglykvxc9Hslgz-5" value="Recuperação" style="rounded=0;whiteSpace=wrap;html=1;" parent="1" vertex="1">
          <mxGeometry x="30" y="760" width="120" height="60" as="geometry" />
        </mxCell>
        <mxCell id="YylkgkOglykvxc9Hslgz-33" style="edgeStyle=orthogonalEdgeStyle;rounded=0;orthogonalLoop=1;jettySize=auto;html=1;exitX=1;exitY=0.5;exitDx=0;exitDy=0;entryX=0;entryY=0.5;entryDx=0;entryDy=0;" parent="1" source="YylkgkOglykvxc9Hslgz-6" target="YylkgkOglykvxc9Hslgz-32" edge="1">
          <mxGeometry relative="1" as="geometry" />
        </mxCell>
        <mxCell id="YylkgkOglykvxc9Hslgz-6" value="Calcular as dimensões ideias do paraquedas." style="ellipse;whiteSpace=wrap;html=1;fillColor=#e1d5e7;strokeColor=#9673a6;" parent="1" vertex="1">
          <mxGeometry x="200" y="750" width="120" height="80" as="geometry" />
        </mxCell>
        <mxCell id="rFm5PoCtBt1_bLLXT2XU-6" style="edgeStyle=orthogonalEdgeStyle;rounded=0;orthogonalLoop=1;jettySize=auto;html=1;exitX=1;exitY=0.5;exitDx=0;exitDy=0;entryX=0;entryY=0.5;entryDx=0;entryDy=0;" parent="1" source="YylkgkOglykvxc9Hslgz-7" target="rFm5PoCtBt1_bLLXT2XU-5" edge="1">
          <mxGeometry relative="1" as="geometry" />
        </mxCell>
        <mxCell id="YylkgkOglykvxc9Hslgz-7" value="Determinar quais grandezas serão medidas e quais sensores serão usados." style="ellipse;whiteSpace=wrap;html=1;fillColor=#e1d5e7;strokeColor=#9673a6;" parent="1" vertex="1">
          <mxGeometry x="200" y="563" width="120" height="80" as="geometry" />
        </mxCell>
        <mxCell id="T7dbJaCAYgnF1lV1QpFW-12" style="edgeStyle=orthogonalEdgeStyle;rounded=0;orthogonalLoop=1;jettySize=auto;html=1;exitX=1;exitY=0.5;exitDx=0;exitDy=0;entryX=0;entryY=0.5;entryDx=0;entryDy=0;" parent="1" source="YylkgkOglykvxc9Hslgz-13" target="YylkgkOglykvxc9Hslgz-17" edge="1">
          <mxGeometry relative="1" as="geometry" />
        </mxCell>
        <mxCell id="YylkgkOglykvxc9Hslgz-13" value="Calcular quanto de combustível iremos usar e o formato" style="ellipse;whiteSpace=wrap;html=1;fillColor=#e1d5e7;strokeColor=#9673a6;" parent="1" vertex="1">
          <mxGeometry x="400" y="377" width="120" height="80" as="geometry" />
        </mxCell>
        <mxCell id="T7dbJaCAYgnF1lV1QpFW-22" style="edgeStyle=orthogonalEdgeStyle;rounded=0;orthogonalLoop=1;jettySize=auto;html=1;exitX=1;exitY=0.5;exitDx=0;exitDy=0;entryX=0;entryY=0.5;entryDx=0;entryDy=0;" parent="1" source="YylkgkOglykvxc9Hslgz-15" target="YylkgkOglykvxc9Hslgz-13" edge="1">
          <mxGeometry relative="1" as="geometry" />
        </mxCell>
        <mxCell id="YylkgkOglykvxc9Hslgz-15" value="Determinar qual sera o combustível usado e como será implementado." style="ellipse;whiteSpace=wrap;html=1;fillColor=#e1d5e7;strokeColor=#9673a6;" parent="1" vertex="1">
          <mxGeometry x="200" y="377" width="120" height="80" as="geometry" />
        </mxCell>
        <mxCell id="T7dbJaCAYgnF1lV1QpFW-30" style="edgeStyle=orthogonalEdgeStyle;rounded=0;orthogonalLoop=1;jettySize=auto;html=1;exitX=1;exitY=0.5;exitDx=0;exitDy=0;entryX=0;entryY=0.5;entryDx=0;entryDy=0;" parent="1" source="YylkgkOglykvxc9Hslgz-17" target="12SOdbaMw9ZFsidzjT8U-11" edge="1">
          <mxGeometry relative="1" as="geometry" />
        </mxCell>
        <mxCell id="YylkgkOglykvxc9Hslgz-17" value="Determinar as dimensões, design e material do motor." style="ellipse;whiteSpace=wrap;html=1;" parent="1" vertex="1">
          <mxGeometry x="600" y="377" width="120" height="80" as="geometry" />
        </mxCell>
        <mxCell id="YylkgkOglykvxc9Hslgz-22" style="edgeStyle=orthogonalEdgeStyle;rounded=0;orthogonalLoop=1;jettySize=auto;html=1;exitX=1;exitY=0.5;exitDx=0;exitDy=0;entryX=0;entryY=0.5;entryDx=0;entryDy=0;" parent="1" source="YylkgkOglykvxc9Hslgz-19" target="YylkgkOglykvxc9Hslgz-21" edge="1">
          <mxGeometry relative="1" as="geometry" />
        </mxCell>
        <mxCell id="YylkgkOglykvxc9Hslgz-19" value="Estruturar a melhor distribuição para os subsystems. E determinar Diametro do foguete." style="ellipse;whiteSpace=wrap;html=1;fillColor=#e1d5e7;strokeColor=#9673a6;" parent="1" vertex="1">
          <mxGeometry x="200" y="190" width="120" height="80" as="geometry" />
        </mxCell>
        <mxCell id="T7dbJaCAYgnF1lV1QpFW-13" style="edgeStyle=orthogonalEdgeStyle;rounded=0;orthogonalLoop=1;jettySize=auto;html=1;exitX=1;exitY=0.5;exitDx=0;exitDy=0;" parent="1" source="YylkgkOglykvxc9Hslgz-21" target="rFm5PoCtBt1_bLLXT2XU-2" edge="1">
          <mxGeometry relative="1" as="geometry" />
        </mxCell>
        <mxCell id="YylkgkOglykvxc9Hslgz-21" value="Determinar os materiais usados." style="ellipse;whiteSpace=wrap;html=1;" parent="1" vertex="1">
          <mxGeometry x="400" y="190" width="120" height="80" as="geometry" />
        </mxCell>
        <mxCell id="YylkgkOglykvxc9Hslgz-28" value="Sequencia de testes." style="rhombus;whiteSpace=wrap;html=1;" parent="1" vertex="1">
          <mxGeometry x="1230" y="420" width="80" height="80" as="geometry" />
        </mxCell>
        <mxCell id="YylkgkOglykvxc9Hslgz-34" style="edgeStyle=orthogonalEdgeStyle;rounded=0;orthogonalLoop=1;jettySize=auto;html=1;exitX=1;exitY=0.5;exitDx=0;exitDy=0;entryX=0.5;entryY=1;entryDx=0;entryDy=0;" parent="1" source="iwDd07PAolmuR01AQG8s-1" target="YylkgkOglykvxc9Hslgz-28" edge="1">
          <mxGeometry relative="1" as="geometry" />
        </mxCell>
        <mxCell id="iwDd07PAolmuR01AQG8s-6" style="edgeStyle=orthogonalEdgeStyle;rounded=0;orthogonalLoop=1;jettySize=auto;html=1;exitX=1;exitY=0.5;exitDx=0;exitDy=0;" parent="1" source="YylkgkOglykvxc9Hslgz-32" target="iwDd07PAolmuR01AQG8s-1" edge="1">
          <mxGeometry relative="1" as="geometry">
            <Array as="points">
              <mxPoint x="550" y="790" />
              <mxPoint x="550" y="790" />
            </Array>
          </mxGeometry>
        </mxCell>
        <mxCell id="YylkgkOglykvxc9Hslgz-32" value="Projetar o sistema de ejeção e pistão." style="ellipse;whiteSpace=wrap;html=1;fillColor=#e1d5e7;strokeColor=#9673a6;" parent="1" vertex="1">
          <mxGeometry x="400" y="750" width="120" height="80" as="geometry" />
        </mxCell>
        <mxCell id="rFm5PoCtBt1_bLLXT2XU-4" style="edgeStyle=orthogonalEdgeStyle;rounded=0;orthogonalLoop=1;jettySize=auto;html=1;exitX=1;exitY=0.5;exitDx=0;exitDy=0;entryX=0.5;entryY=0;entryDx=0;entryDy=0;" parent="1" source="12SOdbaMw9ZFsidzjT8U-7" target="YylkgkOglykvxc9Hslgz-28" edge="1">
          <mxGeometry relative="1" as="geometry" />
        </mxCell>
        <mxCell id="12SOdbaMw9ZFsidzjT8U-10" style="edgeStyle=orthogonalEdgeStyle;rounded=0;orthogonalLoop=1;jettySize=auto;html=1;exitX=1;exitY=0.5;exitDx=0;exitDy=0;entryX=0;entryY=0.5;entryDx=0;entryDy=0;" parent="1" source="rFm5PoCtBt1_bLLXT2XU-2" target="12SOdbaMw9ZFsidzjT8U-7" edge="1">
          <mxGeometry relative="1" as="geometry" />
        </mxCell>
        <mxCell id="rFm5PoCtBt1_bLLXT2XU-2" value="&lt;font face=&quot;helvetica&quot;&gt;Modelar e projetar couplings (conector entre os tubos de subsistemas)&lt;/font&gt;" style="ellipse;whiteSpace=wrap;html=1;" parent="1" vertex="1">
          <mxGeometry x="600" y="190" width="120" height="80" as="geometry" />
        </mxCell>
        <mxCell id="T7dbJaCAYgnF1lV1QpFW-4" style="edgeStyle=orthogonalEdgeStyle;rounded=0;orthogonalLoop=1;jettySize=auto;html=1;exitX=1;exitY=0.5;exitDx=0;exitDy=0;entryX=0;entryY=0.5;entryDx=0;entryDy=0;" parent="1" source="rFm5PoCtBt1_bLLXT2XU-5" target="T7dbJaCAYgnF1lV1QpFW-1" edge="1">
          <mxGeometry relative="1" as="geometry" />
        </mxCell>
        <mxCell id="rFm5PoCtBt1_bLLXT2XU-5" value="Desenvolver o protótipo de sensores e medição." style="ellipse;whiteSpace=wrap;html=1;fillColor=#e1d5e7;strokeColor=#9673a6;" parent="1" vertex="1">
          <mxGeometry x="400" y="563" width="120" height="80" as="geometry" />
        </mxCell>
        <mxCell id="WbXDVa5t66gAegCqbV1g-4" style="edgeStyle=orthogonalEdgeStyle;rounded=0;orthogonalLoop=1;jettySize=auto;html=1;exitX=1;exitY=0.5;exitDx=0;exitDy=0;entryX=0;entryY=0.5;entryDx=0;entryDy=0;" parent="1" source="WbXDVa5t66gAegCqbV1g-2" target="WbXDVa5t66gAegCqbV1g-3" edge="1">
          <mxGeometry relative="1" as="geometry" />
        </mxCell>
        <mxCell id="WbXDVa5t66gAegCqbV1g-2" value="29/08/2020" style="shape=step;perimeter=stepPerimeter;whiteSpace=wrap;html=1;fixedSize=1;" parent="1" vertex="1">
          <mxGeometry x="200" y="890" width="120" height="50" as="geometry" />
        </mxCell>
        <mxCell id="WbXDVa5t66gAegCqbV1g-6" value="" style="edgeStyle=orthogonalEdgeStyle;rounded=0;orthogonalLoop=1;jettySize=auto;html=1;" parent="1" source="WbXDVa5t66gAegCqbV1g-3" target="WbXDVa5t66gAegCqbV1g-5" edge="1">
          <mxGeometry relative="1" as="geometry" />
        </mxCell>
        <mxCell id="WbXDVa5t66gAegCqbV1g-3" value="03/10/2020" style="shape=step;perimeter=stepPerimeter;whiteSpace=wrap;html=1;fixedSize=1;" parent="1" vertex="1">
          <mxGeometry x="400" y="890" width="120" height="50" as="geometry" />
        </mxCell>
        <mxCell id="WbXDVa5t66gAegCqbV1g-8" value="" style="edgeStyle=orthogonalEdgeStyle;rounded=0;orthogonalLoop=1;jettySize=auto;html=1;" parent="1" source="WbXDVa5t66gAegCqbV1g-5" target="WbXDVa5t66gAegCqbV1g-7" edge="1">
          <mxGeometry relative="1" as="geometry" />
        </mxCell>
        <mxCell id="WbXDVa5t66gAegCqbV1g-5" value="17/10/2020" style="shape=step;perimeter=stepPerimeter;whiteSpace=wrap;html=1;fixedSize=1;" parent="1" vertex="1">
          <mxGeometry x="600" y="890" width="120" height="50" as="geometry" />
        </mxCell>
        <mxCell id="12SOdbaMw9ZFsidzjT8U-14" style="edgeStyle=orthogonalEdgeStyle;rounded=0;orthogonalLoop=1;jettySize=auto;html=1;exitX=1;exitY=0.5;exitDx=0;exitDy=0;entryX=0;entryY=0.5;entryDx=0;entryDy=0;" parent="1" source="WbXDVa5t66gAegCqbV1g-7" target="12SOdbaMw9ZFsidzjT8U-13" edge="1">
          <mxGeometry relative="1" as="geometry" />
        </mxCell>
        <mxCell id="WbXDVa5t66gAegCqbV1g-7" value="07/11/2020" style="shape=step;perimeter=stepPerimeter;whiteSpace=wrap;html=1;fixedSize=1;" parent="1" vertex="1">
          <mxGeometry x="800" y="890" width="120" height="50" as="geometry" />
        </mxCell>
        <mxCell id="iwDd07PAolmuR01AQG8s-1" value="Modelar o CAD do bloco de recuperação." style="ellipse;whiteSpace=wrap;html=1;" parent="1" vertex="1">
          <mxGeometry x="1000" y="750" width="120" height="80" as="geometry" />
        </mxCell>
        <mxCell id="12SOdbaMw9ZFsidzjT8U-18" style="edgeStyle=orthogonalEdgeStyle;rounded=0;orthogonalLoop=1;jettySize=auto;html=1;exitX=1;exitY=0.5;exitDx=0;exitDy=0;entryX=0;entryY=1;entryDx=0;entryDy=0;" parent="1" source="12SOdbaMw9ZFsidzjT8U-3" target="YylkgkOglykvxc9Hslgz-28" edge="1">
          <mxGeometry relative="1" as="geometry" />
        </mxCell>
        <mxCell id="12SOdbaMw9ZFsidzjT8U-3" value="Modelar o CAD do bloco de aviônica." style="ellipse;whiteSpace=wrap;html=1;" parent="1" vertex="1">
          <mxGeometry x="1000" y="563" width="120" height="80" as="geometry" />
        </mxCell>
        <mxCell id="12SOdbaMw9ZFsidzjT8U-7" value="Modelar o CAD da Fuselagem." style="ellipse;whiteSpace=wrap;html=1;" parent="1" vertex="1">
          <mxGeometry x="1000" y="190" width="120" height="80" as="geometry" />
        </mxCell>
        <mxCell id="12SOdbaMw9ZFsidzjT8U-19" style="edgeStyle=orthogonalEdgeStyle;rounded=0;orthogonalLoop=1;jettySize=auto;html=1;exitX=1;exitY=0.5;exitDx=0;exitDy=0;" parent="1" source="12SOdbaMw9ZFsidzjT8U-11" edge="1">
          <mxGeometry relative="1" as="geometry">
            <mxPoint x="1250" y="440" as="targetPoint" />
            <Array as="points">
              <mxPoint x="1250" y="417" />
            </Array>
          </mxGeometry>
        </mxCell>
        <mxCell id="12SOdbaMw9ZFsidzjT8U-11" value="Modelar o Cad do bloco de Propulsão." style="ellipse;whiteSpace=wrap;html=1;" parent="1" vertex="1">
          <mxGeometry x="1000" y="377" width="120" height="80" as="geometry" />
        </mxCell>
        <mxCell id="12SOdbaMw9ZFsidzjT8U-13" value="21/11/2020" style="shape=step;perimeter=stepPerimeter;whiteSpace=wrap;html=1;fixedSize=1;" parent="1" vertex="1">
          <mxGeometry x="1000" y="890" width="120" height="50" as="geometry" />
        </mxCell>
        <mxCell id="T7dbJaCAYgnF1lV1QpFW-33" style="edgeStyle=orthogonalEdgeStyle;rounded=0;orthogonalLoop=1;jettySize=auto;html=1;exitX=1;exitY=0.5;exitDx=0;exitDy=0;" parent="1" source="T7dbJaCAYgnF1lV1QpFW-1" target="12SOdbaMw9ZFsidzjT8U-3" edge="1">
          <mxGeometry relative="1" as="geometry" />
        </mxCell>
        <mxCell id="T7dbJaCAYgnF1lV1QpFW-1" value="Desenvolver Schematico e modelo 3D dos componentes." style="ellipse;whiteSpace=wrap;html=1;" parent="1" vertex="1">
          <mxGeometry x="600" y="563" width="120" height="80" as="geometry" />
        </mxCell>
        <mxCell id="T7dbJaCAYgnF1lV1QpFW-16" value="Estimar o calculo de polvora, para acionamento do pistão" style="ellipse;whiteSpace=wrap;html=1;" parent="1" vertex="1">
          <mxGeometry x="600" y="750" width="120" height="80" as="geometry" />
        </mxCell>
        <mxCell id="FI0NeMG7FrhcLyLmHCB0-1" value="Desenvolver sistema de alimentação e telemetria." style="ellipse;whiteSpace=wrap;html=1;" vertex="1" parent="1">
          <mxGeometry x="800" y="563" width="120" height="80" as="geometry" />
        </mxCell>
      </root>
    </mxGraphModel>
  </diagram>
</mxfile>
